<svg width="22" height="23" viewBox="0 0 22 23" fill="none" xmlns="http://www.w3.org/2000/svg">
<path d="M6.53873 5.20833V4.6875C6.53873 2.10174 8.63872 0 11.2262 0C13.8147 0 15.9137 2.10006 15.9137 4.6875V5.20833H17.5944C18.9941 5.20833 20.2118 6.30534 20.3539 7.6997L21.6293 20.2141C21.7792 21.6856 20.6693 22.9167 19.1925 22.9167H3.26003C1.78013 22.9167 0.672855 21.6899 0.823255 20.2141L2.0986 7.6997C2.24029 6.30933 3.46094 5.20833 4.85809 5.20833H6.53873ZM6.53873 7.29167H4.85809C4.52911 7.29167 4.20446 7.58449 4.1712 7.91092L2.89585 20.4253C2.87054 20.6737 3.01461 20.8333 3.26003 20.8333H19.1925C19.4343 20.8333 19.5816 20.6699 19.5567 20.4253L18.2813 7.91092C18.2477 7.58106 17.9265 7.29167 17.5944 7.29167H15.9137V9.375C15.9137 9.9503 15.4474 10.4167 14.8721 10.4167C14.2968 10.4167 13.8304 9.9503 13.8304 9.375V7.29167H8.62206V9.375C8.62206 9.9503 8.15569 10.4167 7.5804 10.4167C7.0051 10.4167 6.53873 9.9503 6.53873 9.375V7.29167ZM13.8304 5.20833V4.24679C13.8304 3.05259 12.6643 2.08333 11.2262 2.08333C9.78872 2.08333 8.62206 3.05337 8.62206 4.24679V5.20833H13.8304Z" fill="black"/>
</svg>
