<svg width="22" height="22" viewBox="0 0 22 22" fill="none" xmlns="http://www.w3.org/2000/svg">
<g clip-path="url(#clip0_8958_137)">
<path d="M4.82722 8.95125C5.25611 7.65366 6.08384 6.52466 7.19232 5.72531C8.30081 4.92597 9.63342 4.49711 11.0001 4.49992C12.5492 4.49992 13.9499 5.04992 15.0499 5.95008L18.2509 2.75C16.3002 1.04958 13.8005 0 11.0001 0C6.66422 0 2.93155 2.47317 1.13672 6.09583L4.82722 8.95125Z" fill="#EA4335"/>
<path d="M14.7032 16.512C13.704 17.1564 12.4354 17.5002 10.9999 17.5002C9.63869 17.503 8.31111 17.0775 7.20509 16.2841C6.09907 15.4907 5.27065 14.3694 4.83712 13.0791L1.13379 15.8905C2.04243 17.7296 3.44862 19.277 5.19263 20.357C6.93664 21.437 8.94856 22.0062 10.9999 22.0001C13.6885 22.0001 16.257 21.044 18.181 19.2501L14.7041 16.512H14.7032Z" fill="#34A853"/>
<path d="M18.1812 19.2502C20.1932 17.3728 21.4995 14.5788 21.4995 11.0002C21.4995 10.3493 21.3996 9.64992 21.2502 9H11V13.2506H16.8997C16.6091 14.6797 15.8272 15.7861 14.7043 16.5121L18.1812 19.2502Z" fill="#4A90E2"/>
<path d="M4.83736 13.0789C4.6131 12.4087 4.49917 11.7066 4.50002 10.9999C4.50002 10.283 4.61461 9.59462 4.82727 8.95112L1.13677 6.0957C0.381787 7.61983 -0.00740662 9.29901 0.00010675 10.9999C0.00010675 12.7599 0.408023 14.419 1.13402 15.8903L4.83736 13.0789Z" fill="#FBBC05"/>
</g>
<g clip-path="url(#clip1_8958_137)">
<path d="M4.82722 8.95125C5.25611 7.65366 6.08384 6.52466 7.19232 5.72531C8.30081 4.92597 9.63342 4.49711 11.0001 4.49992C12.5492 4.49992 13.9499 5.04992 15.0499 5.95008L18.2509 2.75C16.3002 1.04958 13.8005 0 11.0001 0C6.66422 0 2.93155 2.47317 1.13672 6.09583L4.82722 8.95125Z" fill="#EA4335"/>
<path d="M14.7032 16.512C13.704 17.1564 12.4354 17.5002 10.9999 17.5002C9.63869 17.503 8.31111 17.0775 7.20509 16.2841C6.09907 15.4907 5.27065 14.3694 4.83712 13.0791L1.13379 15.8905C2.04243 17.7296 3.44862 19.277 5.19263 20.357C6.93664 21.437 8.94856 22.0062 10.9999 22.0001C13.6885 22.0001 16.257 21.044 18.181 19.2501L14.7041 16.512H14.7032Z" fill="#34A853"/>
<path d="M18.1812 19.2502C20.1932 17.3728 21.4995 14.5788 21.4995 11.0002C21.4995 10.3493 21.3996 9.64992 21.2502 9H11V13.2506H16.8997C16.6091 14.6797 15.8272 15.7861 14.7043 16.5121L18.1812 19.2502Z" fill="#4A90E2"/>
<path d="M4.83736 13.0789C4.6131 12.4087 4.49917 11.7066 4.50002 10.9999C4.50002 10.283 4.61461 9.59462 4.82727 8.95112L1.13677 6.0957C0.381787 7.61983 -0.00740662 9.29901 0.00010675 10.9999C0.00010675 12.7599 0.408023 14.419 1.13402 15.8903L4.83736 13.0789Z" fill="#FBBC05"/>
</g>
<defs>
<clipPath id="clip0_8958_137">
<rect width="22" height="22" fill="white"/>
</clipPath>
<clipPath id="clip1_8958_137">
<rect width="22" height="22" fill="white"/>
</clipPath>
</defs>
</svg>
