<svg width="17" height="17" viewBox="0 0 17 17" fill="none" xmlns="http://www.w3.org/2000/svg">
<path fill-rule="evenodd" clip-rule="evenodd" d="M10.3218 1.15037C10.1608 1.15037 10.0063 1.08977 9.89246 0.981903C9.7786 0.874035 9.71463 0.727734 9.71463 0.575186C9.71463 0.422637 9.7786 0.276336 9.89246 0.168468C10.0063 0.0605997 10.1608 0 10.3218 0H16.3932C16.5542 0 16.7086 0.0605997 16.8225 0.168468C16.9364 0.276336 17.0003 0.422637 17.0003 0.575186V6.32704C17.0003 6.47959 16.9364 6.62589 16.8225 6.73376C16.7086 6.84163 16.5542 6.90223 16.3932 6.90223C16.2322 6.90223 16.0777 6.84163 15.9639 6.73376C15.85 6.62589 15.786 6.47959 15.786 6.32704V1.96368L10.7723 6.71357C11.758 7.8561 12.2426 9.31386 12.1257 10.7853C12.0088 12.2568 11.2994 13.6295 10.1443 14.6194C8.98911 15.6093 7.47654 16.1407 5.91941 16.1038C4.36227 16.0668 2.87968 15.4643 1.77828 14.4209C0.676868 13.3774 0.0409008 11.9729 0.00190499 10.4977C-0.0370908 9.02252 0.523868 7.58957 1.56876 6.49521C2.61366 5.40085 4.06255 4.72881 5.61579 4.61807C7.16902 4.50733 8.70776 4.96637 9.91378 5.90025L14.9275 1.15037H10.3218ZM6.07179 5.75186C4.7836 5.75186 3.54817 6.23665 2.63729 7.0996C1.7264 7.96255 1.21467 9.13295 1.21467 10.3533C1.21467 11.5737 1.7264 12.7441 2.63729 13.6071C3.54817 14.47 4.7836 14.9548 6.07179 14.9548C7.35998 14.9548 8.59541 14.47 9.5063 13.6071C10.4172 12.7441 10.9289 11.5737 10.9289 10.3533C10.9289 9.13295 10.4172 7.96255 9.5063 7.0996C8.59541 6.23665 7.35998 5.75186 6.07179 5.75186Z" fill="#9D9D9D"/>
</svg>
