<svg width="23" height="23" viewBox="0 0 23 23" fill="none" xmlns="http://www.w3.org/2000/svg">
<path d="M22.4305 20.8248L18.3372 16.7276C21.5332 12.6016 21.197 6.72535 17.5234 3.02317C15.5891 1.07392 13.0085 0 10.2617 0C7.51358 0 4.93415 1.07398 2.99997 3.02317C1.06568 4.97242 0 7.57304 0 10.3411C0 13.1104 1.06573 15.7098 2.99997 17.6589C4.93426 19.6082 7.51493 20.6821 10.2617 20.6821C12.5334 20.6821 14.7767 19.9194 16.5706 18.4779L20.6364 22.6324C20.8883 22.8863 21.1972 23 21.5335 23C21.8697 23 22.1786 22.8587 22.4305 22.6324C22.9354 22.1523 22.9354 21.3333 22.4305 20.8245L22.4305 20.8248ZM18.001 10.3411C18.001 12.4316 17.1883 14.382 15.7294 15.8511C14.2715 17.3202 12.3088 18.1403 10.2616 18.1403C8.21444 18.1403 6.25166 17.3213 4.79387 15.8511C3.33603 14.382 2.5222 12.4041 2.5222 10.3411C2.5222 8.25052 3.33491 6.30008 4.79387 4.83103C6.25171 3.36191 8.21444 2.54179 10.2616 2.54179C12.3361 2.54179 14.2716 3.36078 15.7294 4.83103C17.1872 6.30124 18.001 8.25064 18.001 10.3411Z" fill="#E6E8EC"/>
</svg>
